<svg width="255" height="331" viewBox="0 0 255 331" fill="none" xmlns="http://www.w3.org/2000/svg">
<ellipse cx="127.426" cy="203.527" rx="127.226" ry="126.614" fill="url(#paint0_linear_1010_2191)"/>
<g clip-path="url(#clip0_1010_2191)">
<path d="M210.191 21.3468L209.836 24.6881L167.667 295.704C165.999 306.429 158.035 313.788 149.331 313.347H148.985H148.643H148.296H147.95H147.607H147.449C153.728 312.953 159.425 308.534 162.368 301.834C162.543 301.432 162.71 301.026 162.864 300.606C162.971 300.328 163.069 300.046 163.163 299.751C163.598 298.431 163.923 297.077 164.134 295.704L206.769 21.719C206.799 21.5436 206.825 21.3682 206.842 21.1971C206.951 20.4181 207.021 19.6342 207.051 18.8483C207.453 8.70471 201.29 1.01678 192.415 0.879878H191.889H191.363H190.837C190.666 0.879878 190.486 0.879878 190.311 0.879878H189.784H189.438H189.074L188.608 0.824265H188.583L188.134 0.790039C188.287 0.790039 188.433 0.790039 188.587 0.790039H189.113C189.288 0.790039 189.464 0.790039 189.639 0.790039H190.152H190.678C190.854 0.790039 191.025 0.790039 191.205 0.790039H191.731H192.257H192.783H193.309H193.835C194.01 0.790039 194.181 0.790039 194.357 0.790039H194.485C204.532 2.19757 211.341 10.5058 210.191 21.3468Z" fill="url(#paint1_linear_1010_2191)"/>
<path d="M206.769 21.6808L164.147 295.657C162.586 305.694 155.503 312.791 147.466 313.292H147.278H146.931H146.585C146.474 313.292 146.354 313.292 146.243 313.292H145.896H145.55H145.203H144.857H144.515H144.177C143.252 313.268 142.333 313.144 141.435 312.924L78.3257 297.206L78.2059 297.176L60.46 293.064C52.2564 291.173 47.0426 281.034 48.6936 270.39L86.3325 28.4703L87.1152 23.1097C88.0135 16.9534 90.9176 11.4046 94.7329 7.76809C95.0408 7.47289 95.3573 7.19053 95.6781 6.91244C95.892 6.73276 96.1058 6.55735 96.3282 6.3905C96.5507 6.22365 96.756 6.06536 96.9912 5.90706C97.7494 5.37634 98.5522 4.91255 99.3907 4.52093C99.6259 4.41398 99.8654 4.3113 100.101 4.22146C101.376 3.70853 102.73 3.41909 104.104 3.36582L186.332 0.657715L189.057 0.743278H189.232C189.412 0.743278 189.587 0.743278 189.758 0.743278C189.929 0.743278 190.113 0.743278 190.285 0.743278C190.456 0.743278 190.64 0.743278 190.811 0.743278H191.337C191.512 0.743278 191.687 0.743278 191.863 0.743278H192.389C202.094 0.982857 208.552 10.1553 206.769 21.6808Z" fill="url(#paint2_linear_1010_2191)"/>
<path d="M193.083 5.14108C192.846 4.97175 192.601 4.81467 192.348 4.67048C192.583 4.79882 192.831 4.95712 193.083 5.14108ZM191.8 4.37529C191.975 4.46085 192.142 4.55069 192.313 4.64909C192.232 4.61059 192.155 4.56352 192.078 4.52502L191.8 4.37529ZM189.559 3.54959C190.045 3.66854 190.522 3.82151 190.987 4.00736L191.295 4.13999C190.653 3.85693 189.984 3.63908 189.298 3.4897L189.559 3.54959ZM189.058 3.43836L188.913 3.41269L188.656 3.36991C188.874 3.39986 189.084 3.44691 189.298 3.4897H189.259L189.058 3.43836ZM191.539 4.25122H191.501L191.295 4.1571C191.462 4.2341 191.633 4.30684 191.796 4.38812L191.539 4.25122ZM188.117 3.2929H187.831L188.348 3.34852L188.656 3.3913C188.502 3.36135 188.348 3.33996 188.194 3.32285L188.117 3.2929ZM60.7224 290.283L60.8464 290.335H60.825L60.7224 290.283ZM60.5983 290.228H60.6197L60.4999 290.176L60.5983 290.228ZM60.4401 290.155L60.4999 290.181L60.3716 290.121L60.4401 290.155ZM58.2031 288.726C58.1641 288.697 58.127 288.666 58.0919 288.632L58.2031 288.726ZM57.3905 287.99L57.5359 288.131L57.3819 287.977L57.3905 287.99ZM53.8062 282.257L53.9046 282.518L53.9687 282.681L53.8661 282.407C53.8447 282.369 53.8276 282.309 53.8062 282.257ZM52.6086 277.41V277.5C52.6086 277.41 52.5829 277.312 52.5744 277.218C52.5915 277.282 52.6043 277.35 52.6086 277.41ZM52.5059 276.482C52.5059 276.482 52.5059 276.512 52.5059 276.525C52.5039 276.505 52.5039 276.485 52.5059 276.465V276.482ZM52.4803 276.14C52.4782 276.151 52.4782 276.162 52.4803 276.174C52.4803 276.062 52.4803 275.943 52.4546 275.827C52.4632 275.951 52.4717 276.033 52.4803 276.14ZM189.058 0.794428C188.746 0.751646 188.434 0.725981 188.117 0.70459C187.998 0.70459 187.869 0.70459 187.741 0.70459C187.613 0.70459 187.412 0.70459 187.249 0.70459C187.087 0.70459 187.052 0.70459 186.95 0.70459H186.351L104.118 3.4298C102.744 3.4811 101.39 3.77062 100.115 4.28544C99.8797 4.37956 99.6402 4.47796 99.405 4.5892C98.5639 4.97844 97.7594 5.44234 97.0012 5.97533C96.7788 6.12507 96.5735 6.29192 96.3425 6.45877C96.1115 6.62562 95.9148 6.79674 95.6924 6.97643C95.3716 7.24596 95.0551 7.52832 94.7471 7.83207C90.9319 11.4685 88.0277 17.0174 87.1295 23.1694L86.3468 28.5428L51.0432 270.484C49.4863 281.128 54.281 291.254 61.8515 293.128L78.2074 297.175L78.3271 297.205L141.411 312.825C142.418 313.078 143.452 313.204 144.49 313.202C152.249 313.18 159.251 305.929 160.769 295.498L200.744 21.4838C202.326 10.6172 197.147 1.85542 189.058 0.794428ZM200.534 18.4292V18.9255C200.534 19.0966 200.534 19.2634 200.504 19.4303C200.474 19.5971 200.478 19.7725 200.466 19.9394C200.436 20.2517 200.406 20.564 200.363 20.8849C200.34 21.0845 200.314 21.2856 200.286 21.4881L199.995 23.4689L160.645 293.423C160.338 295.552 159.763 297.634 158.934 299.618C158.875 299.764 158.815 299.909 158.75 300.046C158.686 300.183 158.622 300.337 158.554 300.474C158.485 300.611 158.455 300.688 158.404 300.791C158.25 301.103 158.092 301.411 157.925 301.71C157.857 301.847 157.78 301.98 157.707 302.108C157.634 302.237 157.493 302.472 157.382 302.652C157.271 302.831 157.236 302.891 157.159 303.007C157.082 303.122 157.001 303.255 156.916 303.379C156.693 303.717 156.454 304.051 156.206 304.376C156.129 304.474 156.052 304.577 155.97 304.675C155.889 304.774 155.791 304.902 155.697 305.009C155.603 305.116 155.517 305.227 155.423 305.334C155.329 305.441 155.239 305.548 155.141 305.651C155.042 305.753 154.952 305.86 154.85 305.963C154.662 306.168 154.46 306.365 154.259 306.553C153.951 306.848 153.639 307.131 153.314 307.409L153.023 307.644C152.801 307.815 152.596 307.982 152.348 308.145L152.048 308.35C151.719 308.573 151.381 308.778 151.039 308.966C150.928 309.035 150.812 309.095 150.697 309.154C150.466 309.274 150.23 309.385 149.999 309.492L149.653 309.646C149.277 309.805 148.896 309.946 148.511 310.074C148.412 310.111 148.31 310.143 148.207 310.168C148.088 310.207 147.968 310.241 147.844 310.271L147.476 310.361C147.202 310.421 146.928 310.476 146.65 310.519L146.36 310.562C145.996 310.613 145.632 310.643 145.26 310.66H144.875H144.448C144.195 310.66 143.947 310.66 143.691 310.618H143.545H143.477H143.443H143.635H143.691C143.806 310.618 143.922 310.618 144.037 310.618C144.074 310.624 144.111 310.624 144.148 310.618H145.004C145.049 310.622 145.095 310.622 145.141 310.618H145.277H145.384H145.581C145.697 310.618 145.804 310.618 145.915 310.579L146.176 310.541L146.347 310.511H146.449L146.548 310.489H146.608C146.658 310.482 146.709 310.471 146.757 310.455H146.817H146.86C147.147 310.391 147.429 310.318 147.715 310.233C147.745 310.228 147.774 310.219 147.801 310.207H147.852C147.916 310.207 147.976 310.168 148.036 310.143H148.105L148.408 310.036L148.977 309.805H149.011C149.208 309.715 149.401 309.629 149.593 309.531C149.786 309.432 149.965 309.338 150.145 309.24C150.157 309.243 150.171 309.243 150.183 309.24C150.483 309.069 150.778 308.889 151.073 308.692C151.113 308.671 151.15 308.645 151.184 308.615C151.201 308.608 151.217 308.598 151.231 308.585L151.295 308.543L151.36 308.491C151.496 308.397 151.629 308.299 151.762 308.2C151.894 308.102 152.031 307.991 152.159 307.884C152.823 307.339 153.443 306.743 154.011 306.1L154.131 305.959L154.251 305.817C154.572 305.441 154.875 305.047 155.166 304.637C155.363 304.363 155.547 304.08 155.731 303.781C155.799 303.678 155.863 303.567 155.932 303.46L156 303.345L156.235 302.917L156.325 302.758C156.355 302.699 156.389 302.643 156.424 302.579C156.458 302.515 156.484 302.468 156.509 302.416C156.566 302.319 156.617 302.219 156.663 302.117C156.679 302.088 156.693 302.058 156.706 302.027L156.809 301.813C156.869 301.702 156.928 301.582 156.98 301.462C156.98 301.448 156.98 301.434 156.98 301.419C157.035 301.3 157.087 301.184 157.138 301.06L157.305 300.675C157.356 300.547 157.412 300.414 157.463 300.281C157.514 300.149 157.561 300.02 157.613 299.888C157.664 299.755 157.66 299.755 157.685 299.687C157.711 299.618 157.733 299.554 157.758 299.481L157.848 299.22C157.878 299.122 157.912 299.019 157.946 298.917C157.981 298.814 158.019 298.69 158.049 298.57C158.052 298.553 158.052 298.536 158.049 298.519C158.1 298.348 158.152 298.172 158.199 297.997C158.246 297.821 158.314 297.543 158.37 297.317C158.421 297.09 158.472 296.863 158.52 296.632C158.567 296.401 158.597 296.256 158.631 296.063C158.631 296.012 158.631 295.956 158.661 295.901C158.699 295.674 158.742 295.438 158.772 295.207L198.669 21.6721C198.742 21.1544 198.806 20.6325 198.845 20.1233C198.954 18.8694 198.954 17.6082 198.845 16.3543C198.849 16.3403 198.849 16.3254 198.845 16.3115C198.845 16.1746 198.815 16.0377 198.797 15.8836C198.78 15.7296 198.797 15.704 198.768 15.6141C198.733 15.3703 198.699 15.1307 198.661 14.8954L198.532 14.2066C198.507 14.0911 198.481 13.9756 198.46 13.8643C198.438 13.7531 198.404 13.6333 198.378 13.5221C198.381 13.4908 198.381 13.4593 198.378 13.428C198.378 13.3467 198.336 13.2697 198.314 13.1884C198.293 13.1282 198.276 13.0668 198.263 13.0044C198.263 12.9616 198.263 12.9189 198.224 12.8761L198.126 12.5466C198.028 12.2215 197.916 11.9049 197.801 11.5926C197.762 11.4942 197.724 11.3958 197.69 11.2974L197.63 11.1562C197.608 11.0963 197.583 11.0364 197.557 10.9808C197.514 10.8824 197.476 10.784 197.429 10.6856C197.343 10.4931 197.253 10.3006 197.159 10.1124C197.112 10.014 197.061 9.91555 197.01 9.81715C196.958 9.71876 196.907 9.62892 196.856 9.53907C196.831 9.48781 196.804 9.43783 196.774 9.38933C196.723 9.29521 196.667 9.20537 196.612 9.11125L196.496 8.91874L196.385 8.75189L196.342 8.68343C196.295 8.6107 196.248 8.53798 196.197 8.46525C196.187 8.44717 196.176 8.42999 196.163 8.41391C196.077 8.28984 195.987 8.1615 195.893 8.03743L195.791 7.89625L195.722 7.8064C195.689 7.76033 195.653 7.71607 195.615 7.67378L195.457 7.4727L195.333 7.32724L195.128 7.09194L195.012 6.96788C194.969 6.91654 194.922 6.8652 194.875 6.81814L194.709 6.64701L194.55 6.48871L194.49 6.4331L194.319 6.2748L194.127 6.09512L194.046 6.02667L193.862 5.86838L193.819 5.83843C193.742 5.77426 193.661 5.7058 193.579 5.64591C193.43 5.5304 193.284 5.42344 193.13 5.31221H193.1C192.863 5.14287 192.618 4.9858 192.365 4.84161C192.283 4.80311 192.206 4.75604 192.129 4.71754L191.851 4.56781L191.595 4.44802H191.556L191.351 4.3539C190.709 4.07084 190.039 3.85299 189.354 3.70361H189.315L189.114 3.66082L188.969 3.63515L188.712 3.59238C188.558 3.56243 188.404 3.54104 188.25 3.52392H188.173H187.886H187.711H187.386C187.138 3.52392 186.89 3.52392 186.633 3.52392L103.832 6.06089C103.614 6.06089 103.404 6.06089 103.182 6.10795L102.869 6.14218C96.304 6.99782 90.1791 14.5018 88.8789 23.4218L52.6728 270.856C52.4488 272.372 52.37 273.907 52.4375 275.438C52.4375 275.438 52.4375 275.464 52.4375 275.472C52.4375 275.592 52.4375 275.712 52.4375 275.827C52.4375 275.943 52.4375 276.033 52.4375 276.14C52.4354 276.151 52.4354 276.162 52.4375 276.174C52.4375 276.272 52.4375 276.366 52.4589 276.465C52.4589 276.465 52.4589 276.495 52.4589 276.507C52.4568 276.529 52.4568 276.55 52.4589 276.572C52.4589 276.644 52.4589 276.713 52.4803 276.786C52.4822 276.807 52.4822 276.828 52.4803 276.85C52.4803 276.85 52.4803 276.85 52.4803 276.875C52.4803 276.982 52.5017 277.094 52.5188 277.201C52.5359 277.307 52.5188 277.333 52.5402 277.393V277.483C52.5402 277.59 52.5701 277.693 52.5829 277.795C52.5829 277.902 52.6129 278.005 52.6343 278.107C52.6557 278.21 52.6856 278.441 52.7198 278.604C52.7198 278.668 52.7412 278.728 52.754 278.788V278.878C52.754 278.955 52.784 279.036 52.8011 279.113C52.8057 279.145 52.8128 279.176 52.8225 279.207C52.8438 279.318 52.8695 279.429 52.8952 279.541C52.9208 279.652 52.9251 279.665 52.9379 279.729C52.9508 279.793 52.9935 279.943 53.0192 280.046L53.0577 280.187C53.0577 280.247 53.0876 280.306 53.1005 280.362C53.1133 280.418 53.1005 280.401 53.1005 280.422L53.1261 280.508C53.1261 280.576 53.1646 280.64 53.1817 280.704L53.263 280.978C53.3742 281.346 53.4982 281.714 53.6308 282.065C53.6308 282.12 53.6693 282.172 53.6864 282.219L53.7848 282.48L53.849 282.642C54.3841 283.984 55.0884 285.252 55.9448 286.416C56.0004 286.493 56.0603 286.565 56.1159 286.638C56.3597 286.951 56.6077 287.25 56.8686 287.532L56.9071 287.575L56.9542 287.622L57.0483 287.725L57.2236 287.905L57.2622 287.939L57.4076 288.08C57.5444 288.208 57.677 288.332 57.8353 288.456L57.8823 288.499C57.9208 288.525 57.9508 288.555 57.9893 288.585L58.0919 288.675L58.2416 288.794C58.3785 288.906 58.5196 289.017 58.6693 289.12L58.7506 289.175C58.8675 289.261 58.9873 289.342 59.1099 289.419L59.1954 289.479L59.559 289.697L59.6531 289.748L59.7044 289.778C59.884 289.881 60.068 289.975 60.2562 290.065L60.3246 290.099L60.3845 290.125L60.4828 290.172H60.5042C60.5684 290.206 60.6368 290.232 60.7095 290.262L60.6069 290.223L60.4871 290.181C60.2775 290.091 60.0594 290.001 59.8798 289.898C58.6385 289.261 57.5135 288.42 56.5521 287.408L56.3383 287.186C56.1629 286.993 55.9875 286.797 55.8207 286.591L55.594 286.309C55.2048 285.821 54.8463 285.309 54.5205 284.777C54.4556 284.682 54.3957 284.583 54.3408 284.482C54.1612 284.187 53.9901 283.887 53.8276 283.579L53.6736 283.271L53.4982 282.912L53.3314 282.553L53.2202 282.309L53.0876 282.001C52.831 281.38 52.6001 280.739 52.3947 280.084C52.3563 279.969 52.322 279.849 52.2878 279.729C52.1766 279.365 52.0782 278.993 51.9884 278.612C51.9542 278.48 51.92 278.343 51.8943 278.184C51.6601 277.15 51.4944 276.101 51.3982 275.044C51.3982 274.899 51.3725 274.753 51.3597 274.616C51.3041 273.876 51.2784 273.132 51.287 272.379C51.287 272.229 51.287 272.075 51.287 271.926C51.3155 270.85 51.4069 269.777 51.5607 268.713L87.1295 24.855L87.3904 23.071C87.4161 22.8856 87.446 22.7017 87.4802 22.5191C87.4802 22.3822 87.523 22.2453 87.5487 22.0913C87.6043 21.7876 87.6642 21.4924 87.7283 21.1972C87.7625 21.0432 87.7967 20.8849 87.8352 20.7351C87.8352 20.6538 87.8737 20.5726 87.8909 20.4913C87.908 20.41 87.9336 20.2988 87.9636 20.2004C87.9935 20.102 88.0448 19.8923 88.0876 19.734C88.1589 19.4659 88.2359 19.2007 88.3186 18.9383C88.3571 18.8057 88.3998 18.6773 88.4426 18.549C88.5666 18.1554 88.6992 17.7746 88.8447 17.3939C88.8874 17.2741 88.9387 17.1543 88.9815 17.0345L89.1569 16.6067L89.3109 16.243C89.3494 16.1403 89.3921 16.0462 89.4349 15.9478L89.5932 15.597L89.7172 15.3318C89.7813 15.2034 89.837 15.0751 89.9054 14.9424C90.0123 14.7243 90.1278 14.5146 90.2433 14.275L90.4272 13.9371C90.4956 13.8087 90.5683 13.6804 90.6411 13.552C91.1393 12.6708 91.6906 11.8208 92.292 11.0065C92.3776 10.891 92.4589 10.7798 92.5487 10.6685L92.8438 10.2878C93.0106 10.0867 93.1731 9.88561 93.3399 9.68881L93.8917 9.07275C94.0799 8.87168 94.2681 8.67488 94.4606 8.48236L94.7514 8.19572C94.9439 8.01603 95.1406 7.83207 95.3417 7.65239C95.5427 7.4727 95.7394 7.31013 95.9447 7.14328C96.15 6.97643 96.3724 6.81814 96.5606 6.66412L96.8772 6.43738C96.9798 6.36037 97.0867 6.29192 97.1894 6.21919L97.5102 6.00956L97.8352 5.80421C98.0448 5.67586 98.2629 5.55179 98.4854 5.432L98.7976 5.26515C98.8073 5.26189 98.8178 5.26189 98.8275 5.26515L99.144 5.10258C99.251 5.0598 99.3536 5.00846 99.4563 4.95712L99.8156 4.80738L100.149 4.67476L100.491 4.55069C100.607 4.50791 100.718 4.46941 100.834 4.43518C101.064 4.35817 101.291 4.28972 101.522 4.23411L101.86 4.15282C102.108 4.09863 102.356 4.05157 102.604 4.01164C102.801 3.98169 102.998 3.9603 103.195 3.93463L103.554 3.90468H103.913L186.851 1.2907H187.613C187.874 1.2907 188.13 1.2907 188.387 1.33776C188.519 1.33776 188.648 1.36343 188.772 1.38055C188.896 1.39766 189.033 1.41049 189.161 1.43188L189.537 1.49605L189.914 1.57306L190.282 1.6629L190.615 1.74847L190.688 1.76986C190.791 1.80408 190.898 1.83403 191 1.87254C191.103 1.91104 191.287 1.96666 191.428 2.02228L191.715 2.13351C191.928 2.21907 192.142 2.30891 192.352 2.41159C192.493 2.47148 192.63 2.54422 192.78 2.61695C192.929 2.68968 192.976 2.7239 193.079 2.77951C193.182 2.83513 193.293 2.90358 193.404 2.96776L193.72 3.16456C194.481 3.65465 195.184 4.22868 195.816 4.87584C195.899 4.95142 195.977 5.03139 196.052 5.11542C196.337 5.41226 196.607 5.72355 196.86 6.04806C196.975 6.18924 197.087 6.33898 197.189 6.47588C197.641 7.09033 198.043 7.73983 198.391 8.41819C198.46 8.54226 198.524 8.66205 198.579 8.78611C198.708 9.04281 198.827 9.30378 198.943 9.56903C199.003 9.70593 199.058 9.83855 199.11 9.97545C199.208 10.2065 199.298 10.4461 199.379 10.6814C199.422 10.8011 199.465 10.9252 199.503 11.045C199.576 11.276 199.653 11.507 199.717 11.7466C199.751 11.8579 199.785 11.9734 199.811 12.0932C199.922 12.4868 200.016 12.8889 200.098 13.2996C200.123 13.408 200.145 13.515 200.162 13.6205C200.239 14.0483 200.303 14.4462 200.359 14.8654C200.38 15.028 200.397 15.182 200.41 15.336C200.51 16.2623 200.551 17.194 200.534 18.1254C200.538 18.2195 200.538 18.3222 200.534 18.4292Z" fill="#C7C7C7"/>
<path d="M60.9186 290.364L60.6063 290.24C60.401 290.155 60.1786 290.056 59.9947 289.958C58.7432 289.322 57.6092 288.477 56.6414 287.459L56.4318 287.241C56.2565 287.044 56.0854 286.852 55.9143 286.647L55.6876 286.364C55.3002 285.874 54.9404 285.363 54.6098 284.833L54.4301 284.542C54.2548 284.246 54.0879 283.943 53.9254 283.635C53.8698 283.536 53.8185 283.434 53.7672 283.327L53.5918 282.967L53.425 282.604C53.3865 282.527 53.348 282.445 53.3138 282.364C53.2796 282.283 53.224 282.159 53.1855 282.052C52.926 281.436 52.6936 280.798 52.4883 280.139C52.4498 280.024 52.4156 279.904 52.3814 279.789C52.2702 279.421 52.1718 279.048 52.082 278.672C52.0477 278.535 52.0135 278.398 51.9836 278.244C51.7533 277.21 51.589 276.163 51.4917 275.108C51.4917 274.958 51.4618 274.813 51.4532 274.68C51.3976 273.945 51.372 273.196 51.3805 272.443C51.3805 272.293 51.3805 272.139 51.3805 271.989C51.411 270.914 51.5024 269.841 51.6543 268.776L87.2231 24.919C88.6859 14.8823 95.679 6.48848 103.083 5.79541C96.4189 6.47564 90.123 14.0609 88.8013 23.1093L52.6679 270.856C51.3933 279.609 55.0118 287.977 60.9186 290.364Z" fill="url(#paint3_linear_1010_2191)"/>
<path d="M199.977 23.4686L160.627 293.423C160.32 295.552 159.745 297.633 158.916 299.618C158.856 299.763 158.796 299.909 158.732 300.046C158.668 300.183 158.604 300.328 158.535 300.474C158.467 300.619 158.437 300.688 158.385 300.79C158.231 301.103 158.073 301.411 157.911 301.71C157.834 301.843 157.761 301.98 157.688 302.108C157.616 302.236 157.474 302.472 157.363 302.651C157.252 302.831 157.218 302.891 157.141 303.006C157.064 303.122 156.983 303.255 156.897 303.379C156.67 303.717 156.435 304.05 156.187 304.371C156.11 304.474 156.033 304.576 155.952 304.675C155.87 304.773 155.772 304.897 155.678 305.009C155.584 305.12 155.494 305.231 155.404 305.334C155.314 305.436 155.216 305.548 155.122 305.65C155.028 305.753 154.93 305.86 154.831 305.963C154.64 306.168 154.443 306.365 154.241 306.553C153.933 306.848 153.621 307.126 153.296 307.409L153.005 307.64C152.782 307.815 152.577 307.982 152.329 308.149L152.03 308.35C151.7 308.572 151.362 308.778 151.02 308.966C150.909 309.03 150.794 309.09 150.678 309.15C150.447 309.274 150.216 309.385 149.981 309.492C149.865 309.543 149.75 309.599 149.634 309.642C149.262 309.806 148.881 309.949 148.492 310.07C148.39 310.108 148.291 310.134 148.189 310.164C148.086 310.194 147.949 310.237 147.825 310.266L147.457 310.356C147.184 310.416 146.91 310.472 146.632 310.515L146.341 310.557C145.977 310.609 145.61 310.639 145.242 310.656H144.857H144.429C144.177 310.656 143.924 310.634 143.672 310.613L143.287 310.57C150.558 311.327 157.38 304.726 158.788 295.062L198.685 21.5306C200.118 11.6908 195.22 3.78464 187.718 3.2627C196.076 3.74185 201.572 12.5293 199.977 23.4686Z" fill="url(#paint4_linear_1010_2191)"/>
<path d="M160.607 293.415L160.316 295.395C158.648 306.835 150.149 314.378 141.497 312.239L61.9415 292.585C54.5976 290.771 49.9227 280.905 51.4282 270.569L51.6892 268.781C51.5373 269.846 51.4459 270.918 51.4154 271.994C51.4154 272.143 51.4154 272.297 51.4154 272.447C51.4154 273.2 51.4154 273.949 51.4881 274.685C51.4881 274.83 51.4881 274.976 51.5266 275.112C51.6239 276.167 51.7882 277.215 52.0185 278.248C52.0484 278.385 52.0827 278.522 52.1169 278.676C52.2067 279.053 52.3051 279.425 52.4163 279.793C52.4505 279.908 52.4847 280.028 52.5232 280.144C52.7285 280.803 52.9609 281.44 53.2204 282.056C53.2589 282.163 53.3059 282.266 53.3487 282.368C53.3915 282.471 53.4214 282.531 53.4599 282.608L53.6267 282.972L53.8021 283.331C53.8534 283.438 53.9047 283.541 53.9603 283.639C54.1229 283.947 54.2897 284.251 54.465 284.546L54.6447 284.837C54.9753 285.367 55.3351 285.878 55.7225 286.368L55.9492 286.651C56.1203 286.856 56.2914 287.049 56.4667 287.245L56.6763 287.464C57.6367 288.477 58.7618 289.32 60.0039 289.958C60.205 290.056 60.4103 290.155 60.6156 290.24C60.8252 290.326 61.0433 290.407 61.2486 290.484L61.5779 290.595C61.7832 290.659 62.0057 290.719 62.2024 290.771L141.787 310.288C142.033 310.348 142.276 310.399 142.519 310.442L142.908 310.506C143.118 310.536 143.336 310.562 143.533 310.579H143.678C143.93 310.604 144.183 310.617 144.435 310.622H144.863H145.248C145.615 310.622 145.983 310.575 146.347 310.523L146.638 310.48C146.916 310.438 147.189 310.382 147.463 310.322L147.831 310.232C147.955 310.202 148.075 310.168 148.195 310.13C148.314 310.091 148.396 310.074 148.498 310.035C148.887 309.915 149.268 309.772 149.64 309.608C149.756 309.565 149.871 309.514 149.987 309.458C150.222 309.351 150.453 309.24 150.684 309.116C150.799 309.06 150.915 308.996 151.026 308.932C151.368 308.739 151.706 308.538 152.035 308.316L152.335 308.115C152.562 307.948 152.788 307.781 153.011 307.605C153.109 307.533 153.203 307.456 153.302 307.374C153.627 307.105 153.939 306.827 154.247 306.519C154.448 306.331 154.649 306.134 154.837 305.928C154.935 305.826 155.034 305.723 155.128 305.616C155.222 305.509 155.32 305.411 155.41 305.299C155.5 305.188 155.598 305.086 155.684 304.974C155.769 304.863 155.868 304.756 155.958 304.641C156.047 304.525 156.116 304.44 156.193 304.337C156.441 304.016 156.676 303.682 156.903 303.344C156.988 303.219 157.07 303.095 157.147 302.972C157.224 302.857 157.296 302.737 157.369 302.617C157.442 302.497 157.587 302.258 157.694 302.074C157.801 301.89 157.844 301.813 157.917 301.676C158.079 301.376 158.237 301.068 158.391 300.756C158.443 300.653 158.494 300.546 158.541 300.439C158.588 300.333 158.674 300.157 158.738 300.012C158.802 299.866 158.862 299.725 158.922 299.584C159.74 297.606 160.306 295.534 160.607 293.415Z" fill="url(#paint5_linear_1010_2191)"/>
<path d="M200.269 21.4879L199.978 23.4687C201.548 12.7005 196.253 4.01574 188.105 3.27561L187.715 3.24567H187.318C187.07 3.24567 186.826 3.24567 186.569 3.24567L103.768 5.78691C103.549 5.78691 103.34 5.78692 103.118 5.82542C95.7138 6.51849 88.7206 14.9123 87.2578 24.949L87.5187 23.1607C87.5444 22.9753 87.5743 22.7913 87.6085 22.6088C87.6085 22.4719 87.6513 22.335 87.677 22.181C87.7326 21.8815 87.7882 21.582 87.8566 21.2868L87.9593 20.8248C87.9807 20.7435 87.9978 20.6665 88.0191 20.5809C88.0405 20.4954 88.0662 20.3884 88.0919 20.29C88.1175 20.1916 88.1731 19.982 88.2159 19.828C88.2886 19.5584 88.3656 19.2932 88.4469 19.028C88.4854 18.8953 88.5281 18.767 88.5709 18.6386C88.6949 18.245 88.8275 17.8643 88.973 17.4835C89.02 17.3637 89.0671 17.2439 89.1098 17.1241C89.1526 17.0044 89.2253 16.829 89.2852 16.6963L89.4392 16.337C89.4819 16.2386 89.5204 16.1402 89.5675 16.0418L89.7215 15.6867C89.7642 15.5968 89.8027 15.5113 89.8455 15.4257L90.0337 15.0407C90.1406 14.8139 90.2561 14.5915 90.3716 14.369C90.4315 14.2578 90.4914 14.1465 90.5555 14.0353C90.6197 13.9241 90.6967 13.7743 90.7694 13.646C91.2676 12.7648 91.8189 11.9147 92.4203 11.1004C92.5059 10.9892 92.5872 10.8737 92.677 10.7625C92.7668 10.6512 92.8694 10.51 92.9721 10.386C93.1346 10.1806 93.3014 9.97956 93.4683 9.78276L94.02 9.1667C94.2082 8.96562 94.3964 8.76882 94.5889 8.5763L94.8797 8.29394C95.0722 8.1057 95.2689 7.92602 95.47 7.74633C95.671 7.56665 95.8677 7.40408 96.073 7.23723C96.2783 7.07038 96.5008 6.91208 96.6889 6.75807L97.0055 6.53132C97.1081 6.45432 97.215 6.38587 97.3177 6.31314L97.6385 6.1035L97.9635 5.89815C98.1774 5.76981 98.3913 5.64573 98.6137 5.52594L98.9259 5.3591H98.9558L99.2724 5.20508L99.5846 5.05535L99.9439 4.90561L100.277 4.77298L100.62 4.64892C100.731 4.60614 100.846 4.56763 100.962 4.53341C101.189 4.4564 101.419 4.39222 101.65 4.33233L101.993 4.25104C102.236 4.19543 102.484 4.14836 102.733 4.10986C102.981 4.07136 103.126 4.05425 103.319 4.03286L103.682 4.00291H104.041L186.851 1.29053H187.613C187.874 1.29053 188.13 1.29053 188.387 1.33331L188.772 1.37609L189.157 1.43171C189.285 1.43171 189.413 1.47449 189.537 1.49588L189.91 1.57289L190.277 1.66273L190.611 1.75257H190.684C190.786 1.7868 190.893 1.81675 190.996 1.85525C191.099 1.89376 191.287 1.94937 191.424 2.00499L191.71 2.11622C191.924 2.20178 192.138 2.29591 192.343 2.3943C192.489 2.4542 192.626 2.52693 192.771 2.59966C192.916 2.67239 192.972 2.70661 193.07 2.76223C193.169 2.81785 193.288 2.88202 193.395 2.95047L193.712 3.14727C194.473 3.63602 195.177 4.21017 195.808 4.85855C195.891 4.93303 195.97 5.01307 196.043 5.09812C196.325 5.39332 196.595 5.70563 196.851 6.03078C196.967 6.17623 197.078 6.32169 197.185 6.4586C197.634 7.07416 198.034 7.72353 198.383 8.4009C198.451 8.52496 198.511 8.64475 198.571 8.76882C198.703 9.02979 198.823 9.29076 198.934 9.55173C198.994 9.68436 199.05 9.82126 199.101 9.95816C199.2 10.1892 199.285 10.4288 199.371 10.6641C199.413 10.7881 199.452 10.9079 199.495 11.0277C199.567 11.2587 199.644 11.4898 199.709 11.7293C199.743 11.8448 199.777 11.9561 199.803 12.0759C199.914 12.4695 200.008 12.8716 200.093 13.2823C200.093 13.3893 200.132 13.4962 200.153 13.6032C200.23 14.031 200.294 14.4289 200.346 14.8524C200.346 15.0064 200.389 15.1605 200.401 15.3187C200.498 16.2452 200.541 17.1766 200.53 18.1081C200.53 18.2065 200.53 18.3092 200.53 18.4162C200.53 18.5231 200.53 18.7499 200.53 18.9167C200.53 19.0836 200.53 19.2504 200.5 19.4215C200.47 19.5927 200.474 19.7638 200.461 19.9307C200.431 20.2472 200.397 20.5595 200.359 20.8761C200.33 21.0843 200.3 21.2883 200.269 21.4879Z" fill="url(#paint6_linear_1010_2191)"/>
<path d="M187.316 3.22852C187.072 3.22852 186.824 3.22852 186.568 3.22852L103.766 5.76977C103.548 5.76977 103.338 5.76977 103.116 5.80827C96.418 6.47567 90.1221 14.0609 88.8004 23.1093L52.667 270.856C51.3839 279.763 55.1392 288.272 61.2213 290.484L61.5507 290.595C61.756 290.66 61.9784 290.719 62.1751 290.771L141.76 310.288C142.005 310.348 142.249 310.399 142.492 310.442L142.881 310.506C150.306 311.541 157.333 304.88 158.766 295.045L198.663 21.5136C200.139 11.5026 195.041 3.49376 187.316 3.22852ZM157.581 294.775C156.298 303.661 149.882 309.873 143.065 308.932C142.945 308.932 142.821 308.898 142.697 308.872C142.474 308.833 142.269 308.786 142.025 308.731L62.4275 289.329C62.2307 289.282 62.0383 289.226 61.8458 289.166L61.5507 289.068C55.9433 287.044 52.5173 279.155 53.6935 271.1L89.844 23.1093C91.0502 14.8396 96.7602 7.8832 102.924 7.25858H102.954C103.15 7.25858 103.351 7.22863 103.552 7.22435L186.337 4.79434C186.568 4.79434 186.799 4.79434 187.025 4.79434C194.138 5.05959 198.723 12.4095 197.393 21.5307L157.581 294.775Z" fill="#404040"/>
<path d="M197.394 21.6421L157.543 294.878C157.303 296.509 156.872 298.105 156.26 299.635C155.812 300.778 155.252 301.872 154.588 302.904C154.455 303.109 154.314 303.31 154.16 303.503C153.946 303.798 153.732 304.081 153.506 304.359C152.891 305.11 152.205 305.801 151.457 306.421C153.098 303.874 154.166 301.001 154.588 298.001L155.046 294.857C155.08 294.673 155.11 294.485 155.135 294.296L194.913 21.6507C194.939 21.4582 194.964 21.2657 194.986 21.0774L195.435 18.0014C195.909 15.0432 195.711 12.0161 194.853 9.14551C197.081 12.213 198.121 16.6923 197.394 21.6421Z" fill="url(#paint7_linear_1010_2191)"/>
<path d="M186.752 6.35596H186.697C186.504 6.35596 186.308 6.35596 186.111 6.35596L103.339 8.67047C103.164 8.67047 102.989 8.67046 102.818 8.69613H102.766H102.741C97.1803 9.26941 91.9793 15.584 90.8843 23.0837L54.6825 271.314C53.6132 278.646 56.727 285.804 61.8211 287.635L62.0649 287.716H62.0948C62.2659 287.768 62.4413 287.819 62.6166 287.862L142.236 307.182C142.437 307.229 142.638 307.268 142.839 307.302H142.877C142.976 307.323 143.076 307.339 143.177 307.349C149.357 308.204 155.153 302.553 156.342 294.514L196.154 21.565C197.36 13.2695 193.202 6.60409 186.752 6.35596ZM153.151 293.766C152.836 296.146 151.861 298.392 150.337 300.247C150.26 300.337 150.183 300.418 150.106 300.504C149.875 300.757 149.631 300.999 149.374 301.227C149.152 301.423 148.921 301.612 148.686 301.783C148.394 301.995 148.088 302.188 147.771 302.36C147.462 302.527 147.142 302.67 146.812 302.788C146.65 302.852 146.487 302.904 146.321 302.955C146.156 303.006 145.989 303.049 145.82 303.083C145.481 303.156 145.136 303.203 144.789 303.225C144.37 303.245 143.949 303.229 143.532 303.178H143.416H143.361H143.322H143.284H143.177H143.066L142.843 303.131L63.1726 284.08L62.9802 284.028L62.7877 283.968H62.762H62.7321H62.6851L62.5867 283.93C58.8442 282.599 56.5473 277.346 57.3343 271.951L93.6303 23.0837C94.4301 17.6076 98.2025 13 102.27 12.538H102.339H102.445C102.558 12.5321 102.671 12.5321 102.783 12.538L185.508 10.5144H185.987C186.015 10.5101 186.044 10.5101 186.072 10.5144C186.158 10.5171 186.244 10.5242 186.329 10.5358H186.445L186.671 10.5657C186.765 10.5657 186.855 10.5914 186.945 10.6085C187.075 10.629 187.203 10.6561 187.33 10.6898L187.403 10.7112L187.711 10.801L188.138 10.9636C188.257 11.0065 188.372 11.0565 188.485 11.1133C188.609 11.1692 188.731 11.2321 188.848 11.3016C189.089 11.427 189.321 11.57 189.541 11.7294C189.744 11.8767 189.938 12.0352 190.123 12.2043C190.162 12.2463 190.204 12.2863 190.247 12.324L190.474 12.5465C190.572 12.6449 190.662 12.7519 190.756 12.8588C190.936 13.077 191.111 13.2866 191.273 13.5391C191.361 13.6558 191.439 13.7788 191.509 13.907C191.586 14.0325 191.658 14.1608 191.727 14.292C192.021 14.8286 192.26 15.3933 192.441 15.9776C192.539 16.2814 192.616 16.5937 192.689 16.9103C192.762 17.2269 192.817 17.552 192.865 17.89C192.886 18.0568 192.903 18.2237 192.92 18.3905C192.95 18.7627 192.971 19.1349 192.971 19.5157C192.971 19.6697 192.971 19.8195 192.971 19.9735C192.957 20.5263 192.91 21.0777 192.83 21.6249L153.151 293.766Z" fill="black"/>
<path d="M115.067 17.0441C115.067 16.9711 115.037 16.9023 115.025 16.8293C115.023 16.8035 115.023 16.7777 115.025 16.752C115.029 16.8508 115.046 16.9496 115.067 17.0441Z" fill="black"/>
<path d="M170.198 15.6353C170.184 15.663 170.171 15.6916 170.16 15.7208C170.122 15.7935 170.087 15.8706 170.045 15.9476L170.198 15.6353Z" fill="black"/>
<path d="M172.792 10.7671C172.065 10.8313 171.38 11.5543 171.175 12.4784C171.175 12.5597 171.145 12.6409 171.132 12.7222C171.072 13.0559 170.995 13.3896 170.906 13.7191C170.871 13.8346 170.841 13.9458 170.807 14.057C170.764 14.1939 170.722 14.3266 170.675 14.4592C170.628 14.5918 170.589 14.6988 170.546 14.8185L170.512 14.9041L170.478 14.994C170.478 15.0196 170.478 15.041 170.448 15.0667C170.43 15.1056 170.414 15.1456 170.401 15.1865C170.38 15.2293 170.362 15.2763 170.341 15.3191C170.298 15.4303 170.247 15.5373 170.2 15.6442L170.046 15.9566C170.048 15.9707 170.048 15.9852 170.046 15.9993C170.003 16.0892 169.956 16.1747 169.909 16.2603C169.862 16.3459 169.828 16.41 169.785 16.4828C169.774 16.5078 169.761 16.5321 169.747 16.5555L169.678 16.6667C169.651 16.7181 169.621 16.7681 169.588 16.8165V16.8593C169.577 16.8791 169.564 16.8977 169.55 16.9149C169.528 16.9491 169.511 16.9833 169.49 17.0133C169.469 17.0432 169.443 17.0903 169.417 17.1245L169.357 17.2186L169.319 17.27L169.246 17.3812C169.23 17.4072 169.211 17.4316 169.191 17.4539C169.169 17.495 169.143 17.5337 169.114 17.5694V17.5951C169.114 17.5951 169.114 17.5951 169.114 17.6165L169.028 17.7363L168.994 17.7833L168.895 17.9117L168.767 18.07C168.729 18.1264 168.686 18.1794 168.639 18.2283C168.614 18.2628 168.587 18.2956 168.557 18.3267C168.527 18.3643 168.494 18.4001 168.459 18.4336C168.433 18.4708 168.403 18.5052 168.369 18.5363C168.317 18.5979 168.261 18.6564 168.202 18.7117C168.163 18.7604 168.12 18.8062 168.074 18.8486L167.993 18.9299L167.8 19.1139L167.612 19.285L167.497 19.3834C167.455 19.4227 167.41 19.4599 167.364 19.4946L167.236 19.5973L167.176 19.6486L166.958 19.8112C166.902 19.8568 166.844 19.8983 166.782 19.9353C166.713 19.9882 166.64 20.0368 166.564 20.0807L166.479 20.1406L166.316 20.239C166.269 20.2701 166.221 20.2986 166.171 20.3246C166.128 20.3514 166.084 20.3757 166.038 20.3973L165.97 20.4358L165.91 20.4658C165.794 20.5257 165.688 20.5813 165.572 20.6283C165.457 20.6754 165.362 20.7225 165.26 20.761C165.157 20.7995 165.029 20.8508 164.918 20.885C164.689 20.9617 164.456 21.0246 164.22 21.0733C164.126 21.0733 164.028 21.1118 163.93 21.1246H163.87L163.622 21.1503L163.339 21.176H163.143L120.016 21.8391H119.935C119.849 21.8391 119.764 21.8391 119.678 21.8391C119.604 21.8432 119.53 21.8432 119.456 21.8391H119.404C119.319 21.8391 119.233 21.8134 119.148 21.8006C118.948 21.758 118.751 21.7037 118.558 21.638C118.459 21.6081 118.369 21.5696 118.271 21.531L118.019 21.4113C117.929 21.3685 117.843 21.3171 117.753 21.2658L117.706 21.2359L117.655 21.2016C117.619 21.1838 117.584 21.1623 117.552 21.1375L117.441 21.0604L117.321 20.9663C117.299 20.9517 117.279 20.9345 117.262 20.915C117.204 20.8758 117.149 20.8314 117.099 20.7824C117.054 20.7485 117.012 20.7098 116.975 20.6668L116.817 20.5171C116.802 20.5032 116.789 20.4874 116.778 20.4701C116.744 20.442 116.712 20.4104 116.684 20.3759C116.651 20.3438 116.619 20.3095 116.59 20.2733L116.513 20.1834L116.389 20.0251L116.261 19.854L116.209 19.7813C116.18 19.7401 116.153 19.6973 116.128 19.6529C116.089 19.6005 116.055 19.5447 116.025 19.4861C116.004 19.4584 115.985 19.4282 115.97 19.3962C115.948 19.362 115.927 19.3321 115.91 19.2978C115.892 19.2678 115.876 19.2363 115.863 19.2037C115.847 19.1799 115.834 19.154 115.824 19.1267C115.786 19.0497 115.747 18.977 115.713 18.9C115.693 18.8615 115.676 18.8215 115.662 18.7802C115.652 18.7673 115.645 18.7528 115.641 18.7374C115.641 18.7032 115.611 18.6647 115.593 18.6262V18.6048C115.595 18.5963 115.595 18.5875 115.593 18.5791C115.576 18.5467 115.563 18.5121 115.555 18.4764C115.542 18.4533 115.532 18.4289 115.525 18.4037C115.525 18.3752 115.512 18.3409 115.487 18.301C115.484 18.2854 115.484 18.2695 115.487 18.2539C115.473 18.2262 115.462 18.1976 115.452 18.1684C115.452 18.1342 115.431 18.0999 115.418 18.0614C115.405 18.0229 115.418 18.0058 115.388 17.9716C115.389 17.9531 115.389 17.9345 115.388 17.916C115.388 17.916 115.388 17.8903 115.388 17.8775C115.371 17.8314 115.356 17.7842 115.345 17.7363C115.345 17.7021 115.324 17.6721 115.315 17.6336C115.317 17.6108 115.317 17.5879 115.315 17.5652C115.315 17.501 115.281 17.4283 115.264 17.3555C115.247 17.2828 115.226 17.1972 115.209 17.1159V17.0946C115.206 17.0804 115.206 17.0659 115.209 17.0518C115.187 16.9576 115.17 16.8593 115.157 16.7609C115.144 16.6625 115.123 16.5598 115.114 16.4528C115.112 16.4115 115.112 16.3701 115.114 16.3288V16.2132C115.112 16.1919 115.112 16.1704 115.114 16.1491V16.0635C115.114 16.0378 115.114 16.0079 115.114 15.9865C115.114 15.871 115.114 15.7598 115.093 15.6442C115.072 15.5287 115.093 15.3918 115.093 15.2635C115.093 15.1608 115.093 15.0539 115.093 14.9426C115.098 14.628 115.119 14.3138 115.157 14.0014C115.162 13.9226 115.17 13.8441 115.183 13.7661C115.243 12.9105 114.815 12.2473 114.178 12.2174L172.792 10.7671Z" fill="black"/>
<path d="M119.656 21.8687C119.742 21.8687 119.828 21.8687 119.913 21.8687H119.768H119.618H119.451C119.52 21.8721 119.588 21.8721 119.656 21.8687Z" fill="black"/>
<path d="M163.741 21.1673H163.557C163.502 21.1736 163.446 21.1736 163.391 21.1673H163.232L163.515 21.1416L163.741 21.1673Z" fill="black"/>
<path d="M114.974 16.4427C114.976 16.4062 114.976 16.3695 114.974 16.333C114.972 16.3696 114.972 16.4062 114.974 16.4427Z" fill="black"/>
<path d="M115.067 17.0441C115.067 16.9711 115.037 16.9023 115.025 16.8293C115.023 16.8035 115.023 16.7777 115.025 16.752C115.029 16.8508 115.046 16.9496 115.067 17.0441Z" fill="black"/>
<path d="M115.589 18.7283C115.567 18.6899 115.55 18.6431 115.529 18.5962V18.6175C115.559 18.6558 115.572 18.6942 115.589 18.7283Z" fill="black"/>
<path d="M115.777 19.1179C115.75 19.0726 115.725 19.0254 115.705 18.9767C115.689 18.9491 115.675 18.9205 115.662 18.8911C115.7 18.9681 115.739 19.0409 115.777 19.1179Z" fill="black"/>
<path d="M115.867 19.2885C115.847 19.2592 115.83 19.2278 115.816 19.1948C115.831 19.2274 115.848 19.2588 115.867 19.2885Z" fill="black"/>
<path d="M116.469 20.1746C116.426 20.1276 116.384 20.072 116.345 20.0206C116.317 19.9889 116.293 19.9545 116.272 19.9179C116.252 19.8956 116.233 19.8712 116.217 19.8452L116.345 20.0163L116.469 20.1746Z" fill="black"/>
<path d="M116.547 20.2646C116.575 20.3004 116.606 20.3341 116.639 20.3658L116.61 20.3405L116.547 20.2646Z" fill="black"/>
<path d="M116.946 20.6604L116.854 20.5803L116.795 20.5171L116.946 20.6604Z" fill="black"/>
<path d="M117.999 21.399C117.926 21.3603 117.848 21.326 117.775 21.2787L117.732 21.2529C117.805 21.3217 117.909 21.3732 117.999 21.399Z" fill="black"/>
<path d="M118.233 21.5353C118.331 21.5738 118.421 21.6123 118.519 21.6423C118.454 21.624 118.389 21.6011 118.327 21.5738L118.233 21.5396L118.109 21.4797C118.064 21.4618 118.021 21.4403 117.98 21.4155L118.233 21.5353Z" fill="black"/>
<path d="M119.125 21.8261C119.211 21.8261 119.296 21.8561 119.382 21.8646C119.306 21.8598 119.23 21.8484 119.155 21.8304C119.155 21.8304 119.134 21.8304 119.125 21.8304L119.027 21.8047C118.959 21.7936 118.892 21.7779 118.826 21.7577L118.574 21.6807H118.535C118.729 21.7406 118.926 21.7892 119.125 21.8261Z" fill="black"/>
<path d="M119.655 21.8687H119.557H119.451C119.519 21.8721 119.587 21.8721 119.655 21.8687Z" fill="black"/>
<path d="M163.142 21.2227H163.052L120.097 21.8858H120.016L163.142 21.2227Z" fill="black"/>
<path d="M163.492 21.1928L163.741 21.167H163.621H163.514L163.492 21.1928Z" fill="black"/>
<path d="M164.092 21.1072C164.328 21.0585 164.56 20.9956 164.789 20.9189L164.737 20.9403L164.438 21.0259C164.363 21.0505 164.285 21.0691 164.207 21.0815L164.092 21.1115H164.057C163.972 21.1115 163.886 21.1457 163.801 21.1542C163.899 21.1457 163.998 21.1243 164.092 21.1072Z" fill="black"/>
<path d="M165.443 20.6621C165.391 20.6907 165.337 20.715 165.281 20.7348L165.131 20.799L165.016 20.8418L164.789 20.9188C164.9 20.8846 165.016 20.8418 165.131 20.7947C165.247 20.7477 165.337 20.7092 165.443 20.6621Z" fill="black"/>
<path d="M165.443 20.6626C165.559 20.6155 165.666 20.5599 165.781 20.5L165.709 20.5428C165.622 20.5873 165.534 20.6273 165.443 20.6626Z" fill="black"/>
<path d="M166.852 19.8357L167.068 19.6738L166.987 19.742L166.852 19.8357Z" fill="black"/>
<path d="M167.393 19.4043L167.3 19.4895L167.262 19.5151C167.307 19.4805 167.351 19.4435 167.393 19.4043Z" fill="black"/>
<path d="M167.89 18.9512L167.809 19.0325L167.698 19.1394C167.634 19.195 167.574 19.2549 167.51 19.3063L167.698 19.1351L167.89 18.9512Z" fill="black"/>
<path d="M168.539 18.2495C168.513 18.2837 168.485 18.3161 168.455 18.3465C168.484 18.3159 168.51 18.2835 168.535 18.2495H168.539Z" fill="black"/>
<path d="M168.802 17.9243L168.731 18.0128L168.672 18.0802L168.798 17.9243H168.802Z" fill="black"/>
<path d="M169.043 17.6079L168.938 17.7479L169.022 17.6291C169.022 17.6291 169.035 17.6164 169.043 17.6079Z" fill="black"/>
<path d="M170.198 15.6353C170.184 15.663 170.171 15.6916 170.16 15.7208C170.122 15.7935 170.087 15.8706 170.045 15.9476L170.198 15.6353Z" fill="black"/>
<path d="M170.412 15.1777L170.361 15.2975C170.361 15.2676 170.378 15.2205 170.412 15.1777Z" fill="black"/>
<path d="M155.016 294.857L154.589 298.001C154.175 300.994 153.119 303.862 151.492 306.408C149.033 308.431 146.081 309.403 143.057 309.009C142.934 308.994 142.811 308.973 142.689 308.945C142.467 308.911 142.262 308.863 142.018 308.808L62.3987 289.398C62.2063 289.351 62.0095 289.295 61.8213 289.235L61.5219 289.137C61.3851 289.085 61.2425 289.03 61.0942 288.97C58.7717 287.999 56.8513 286.005 55.5339 283.408C54.8948 280.638 54.7802 277.772 55.196 274.959L55.6836 271.609C55.1276 275.434 55.8376 279.207 57.4244 282.013C58.5707 284.05 60.1832 285.582 62.1079 286.27C62.1683 286.298 62.2313 286.32 62.2961 286.334H62.3218H62.3517C62.5057 286.386 62.6639 286.429 62.8222 286.467L142.459 305.685C142.634 305.728 142.818 305.762 142.997 305.792H143.036H143.066C143.148 305.81 143.23 305.823 143.314 305.83C148.707 306.579 153.793 301.792 155.016 294.857Z" fill="url(#paint8_linear_1010_2191)"/>
<path d="M197.407 21.5607V21.5308C198.737 12.4096 194.152 5.05968 187.039 4.79443C186.817 4.79443 186.586 4.79443 186.351 4.79443L103.566 7.22445C103.365 7.22445 103.164 7.22445 102.968 7.25868H102.938C102.685 7.28434 102.433 7.31857 102.185 7.36563C99.6442 7.83623 97.2148 9.35927 95.1831 11.5754C93.7806 14.1031 92.8487 16.8645 92.4329 19.7254L91.9453 23.0795C92.4518 19.4218 94.0842 16.0126 96.616 13.3252C98.361 11.5497 100.431 10.3818 102.574 10.155H102.625H102.698C102.861 10.155 103.006 10.1336 103.126 10.1336L185.88 7.92607H186.458C192.095 8.15282 195.778 13.8471 194.965 21.0003L195.414 17.9242C195.884 14.9673 195.685 11.9426 194.832 9.07264C197.095 12.1273 198.134 16.5894 197.407 21.5607Z" fill="url(#paint9_linear_1010_2191)"/>
<path d="M55.5368 283.344C53.7789 279.96 53.0218 275.553 53.672 271.082L89.8439 23.1093C90.4385 18.8179 92.2899 14.7987 95.1646 11.5581C93.7653 14.0869 92.835 16.848 92.4187 19.7081L55.2075 274.881C54.7867 277.698 54.8984 280.568 55.5368 283.344Z" fill="url(#paint10_linear_1010_2191)"/>
<path d="M197.41 21.5695L157.582 294.805C157.341 296.437 156.91 298.035 156.298 299.567C155.845 300.706 155.28 301.798 154.613 302.827C154.481 303.032 154.339 303.229 154.185 303.426C153.976 303.721 153.758 304.004 153.531 304.282C152.915 305.047 152.221 305.747 151.461 306.369V306.344C153.098 303.797 154.165 300.927 154.588 297.929L195.426 17.9288C195.896 14.9718 195.698 11.947 194.844 9.07715C197.098 12.1403 198.138 16.5982 197.41 21.5695Z" fill="url(#paint11_linear_1010_2191)"/>
<path d="M148.24 14.3561L136.166 14.6171C135.862 14.6171 135.665 14.309 135.738 13.9112L135.789 13.5432C135.801 13.3665 135.872 13.1988 135.989 13.0664C136.107 12.934 136.265 12.8444 136.439 12.8117L148.518 12.5293C148.826 12.5293 149.031 12.8416 148.971 13.2438L148.916 13.616C148.903 13.7974 148.829 13.9691 148.706 14.1034C148.584 14.2377 148.419 14.3267 148.24 14.3561Z" fill="url(#paint12_linear_1010_2191)"/>
<path d="M192.851 21.5992L153.15 293.766C152.836 296.146 151.861 298.392 150.336 300.247C150.259 300.337 150.182 300.418 150.105 300.504C149.866 300.76 149.626 301.004 149.374 301.227C149.121 301.449 148.92 301.612 148.685 301.783C148.393 301.995 148.087 302.188 147.77 302.36C147.46 302.524 147.14 302.667 146.812 302.788C146.649 302.848 146.487 302.9 146.32 302.955C146.157 303.006 145.986 303.045 145.819 303.083C145.479 303.154 145.135 303.201 144.789 303.225C144.369 303.245 143.948 303.229 143.531 303.178H143.416H143.36H143.304L143.189 303.152H143.078L142.855 303.105L63.172 284.08L62.9795 284.028L62.787 283.973H62.7357H62.71L62.6116 283.934C58.8691 282.604 56.5723 277.35 57.3593 271.955L93.6552 23.088C94.4551 17.6119 98.2275 13.0043 102.295 12.5423H102.364H102.47C102.583 12.5364 102.696 12.5364 102.808 12.5423L114.006 12.2685C114.643 12.2984 115.071 12.9572 115.011 13.8172C115.011 13.8771 115.011 13.937 114.99 13.9968V14.0225C114.99 14.0225 114.99 14.0225 114.99 14.0525C114.952 14.3648 114.93 14.679 114.926 14.9937C114.926 15.1049 114.926 15.2119 114.926 15.3145C114.926 15.4429 114.926 15.5712 114.926 15.6953C114.926 15.8194 114.926 15.922 114.947 16.0376C114.947 16.0376 114.947 16.0889 114.947 16.1146V16.2001C114.944 16.2214 114.944 16.243 114.947 16.2643V16.3798C114.949 16.4169 114.949 16.454 114.947 16.491C114.947 16.598 114.973 16.6964 114.99 16.7991C115.007 16.9017 115.02 16.9959 115.041 17.09C115.039 17.1041 115.039 17.1186 115.041 17.1328V17.1199C115.041 17.2012 115.08 17.2825 115.097 17.3595C115.114 17.4365 115.131 17.505 115.148 17.5691C115.15 17.5919 115.15 17.6148 115.148 17.6376C115.148 17.6761 115.148 17.706 115.178 17.7403C115.189 17.7882 115.203 17.8354 115.221 17.8815C115.221 17.8815 115.221 17.9071 115.221 17.92C115.222 17.9385 115.222 17.9571 115.221 17.9756C115.221 18.0098 115.242 18.0398 115.251 18.0654C115.259 18.0911 115.272 18.1382 115.285 18.1724C115.294 18.2016 115.306 18.2302 115.319 18.2579C115.317 18.2735 115.317 18.2894 115.319 18.305C115.319 18.3421 115.332 18.3763 115.358 18.4077C115.365 18.4329 115.375 18.4573 115.387 18.4804C115.396 18.5161 115.409 18.5506 115.426 18.5831C115.428 18.5915 115.428 18.6003 115.426 18.6087V18.6301C115.426 18.6686 115.456 18.7071 115.473 18.7414C115.477 18.7568 115.485 18.7713 115.494 18.7842C115.508 18.8255 115.525 18.8655 115.546 18.9039C115.556 18.9336 115.569 18.9622 115.584 18.9895C115.605 19.0382 115.629 19.0854 115.657 19.1307C115.666 19.158 115.679 19.1839 115.695 19.2077C115.709 19.2403 115.724 19.2718 115.742 19.3018C115.742 19.336 115.781 19.366 115.802 19.4002C115.817 19.4322 115.836 19.4624 115.858 19.4901C115.887 19.5486 115.921 19.6045 115.961 19.6569C115.985 19.7013 116.012 19.7441 116.042 19.7853L116.093 19.858C116.109 19.884 116.128 19.9084 116.149 19.9307C116.171 19.9652 116.195 19.9981 116.222 20.0291C116.26 20.0805 116.303 20.1361 116.346 20.1831L116.423 20.273L116.487 20.35L116.517 20.3756C116.545 20.4102 116.576 20.4417 116.611 20.4698C116.621 20.4871 116.634 20.5029 116.649 20.5168L116.709 20.581L116.803 20.6623C116.84 20.7052 116.882 20.7439 116.927 20.7778C116.977 20.8268 117.032 20.8712 117.09 20.9104C117.108 20.9299 117.128 20.9472 117.15 20.9618L117.269 21.0559L117.381 21.1329C117.413 21.1577 117.447 21.1792 117.483 21.1971C117.498 21.2118 117.515 21.2235 117.535 21.2313L117.582 21.2612C117.596 21.2723 117.612 21.2809 117.629 21.2869C117.701 21.334 117.778 21.3682 117.851 21.4067C117.892 21.4315 117.935 21.4529 117.979 21.4709L118.103 21.5265L118.198 21.5607C118.26 21.588 118.324 21.6108 118.39 21.6292H118.429L118.681 21.7062C118.747 21.7264 118.814 21.7421 118.882 21.7532H118.98C118.98 21.7532 118.98 21.7532 119.01 21.7532C119.085 21.7712 119.16 21.7827 119.237 21.7875H119.288H119.395H119.455H119.605C119.68 21.7939 119.756 21.7939 119.831 21.7875H119.913L162.868 21.1243H163.142C163.224 21.1307 163.307 21.1307 163.39 21.1243C163.445 21.1307 163.501 21.1307 163.557 21.1243H163.621H163.741H163.801C163.886 21.1243 163.972 21.0987 164.057 21.0815H164.091L164.207 21.0559C164.285 21.0434 164.362 21.0248 164.438 21.0003L164.737 20.9147L164.789 20.8933L165.015 20.8163L165.131 20.7735C165.182 20.7573 165.232 20.7373 165.28 20.7136C165.337 20.6938 165.391 20.6695 165.443 20.6409C165.533 20.6126 165.622 20.5798 165.708 20.5425C165.729 20.5351 165.749 20.5251 165.768 20.5125L165.828 20.4826L165.896 20.4441C165.942 20.4224 165.986 20.3981 166.029 20.3714C166.079 20.3454 166.127 20.3168 166.174 20.2858L166.337 20.1874L166.422 20.1275C166.498 20.0835 166.571 20.035 166.641 19.9821C166.702 19.945 166.761 19.9036 166.816 19.858L166.944 19.7681L167.026 19.6997L167.085 19.6484L167.214 19.5457L167.252 19.52L167.346 19.4344L167.462 19.336C167.526 19.2847 167.586 19.2248 167.65 19.1692L167.761 19.0665L167.842 18.9852L167.924 18.9039C167.97 18.8615 168.013 18.8158 168.052 18.767C168.111 18.7118 168.167 18.6532 168.219 18.5916C168.252 18.5606 168.282 18.5261 168.309 18.489C168.344 18.4554 168.377 18.4197 168.407 18.382C168.436 18.351 168.463 18.3181 168.488 18.2836C168.536 18.2347 168.579 18.1818 168.617 18.1253L168.677 18.0569C168.702 18.0288 168.725 17.9987 168.745 17.967L168.843 17.8387L168.878 17.7916L168.963 17.6718C168.963 17.6718 168.963 17.6718 168.963 17.6504V17.6248C168.993 17.589 169.018 17.5503 169.04 17.5093C169.061 17.4869 169.08 17.4625 169.096 17.4365L169.168 17.3253L169.207 17.274L169.267 17.1798C169.292 17.1456 169.314 17.1071 169.339 17.0686C169.365 17.0301 169.378 17.0044 169.399 16.9702C169.414 16.953 169.427 16.9344 169.438 16.9146V16.8718C169.47 16.8234 169.5 16.7735 169.528 16.7221L169.596 16.6108C169.611 16.5875 169.623 16.5632 169.635 16.5381C169.677 16.4654 169.72 16.3926 169.759 16.3156C169.797 16.2386 169.853 16.1445 169.896 16.0547C169.898 16.0405 169.898 16.026 169.896 16.0119L170.05 15.6996C170.097 15.5926 170.148 15.4857 170.191 15.3744L170.242 15.2546C170.255 15.2137 170.271 15.1737 170.289 15.1349C170.289 15.1092 170.289 15.0878 170.319 15.0621L170.353 14.9723L170.387 14.8867C170.43 14.7669 170.477 14.6471 170.516 14.5273C170.554 14.4076 170.606 14.2621 170.648 14.1252C170.683 14.014 170.712 13.9027 170.747 13.7872C170.837 13.4578 170.913 13.1241 170.973 12.7904C170.975 12.7791 170.975 12.7675 170.973 12.7562V12.7305C170.973 12.6706 170.973 12.6064 171.003 12.5465C171.209 11.6353 171.893 10.9123 172.62 10.8353L185.336 10.5229H185.926C186.004 10.5258 186.081 10.533 186.157 10.5443H186.273L186.499 10.5743L186.773 10.6171L187.158 10.6984L187.231 10.7197L187.539 10.8096L187.967 10.9722L188.313 11.1219C188.437 11.1818 188.561 11.246 188.677 11.3101C188.915 11.4397 189.147 11.5826 189.369 11.738C189.566 11.8877 189.763 12.0417 189.951 12.2128C189.99 12.2549 190.032 12.2949 190.075 12.3326L190.302 12.5551L190.584 12.8674C190.764 13.0856 190.939 13.2952 191.102 13.5476C191.183 13.6674 191.264 13.7915 191.337 13.9156C191.41 14.0396 191.487 14.168 191.555 14.3006C191.845 14.8393 192.084 15.4035 192.269 15.9862C192.368 16.29 192.445 16.6023 192.517 16.9189C192.59 17.2354 192.646 17.5606 192.693 17.8986C192.714 18.0654 192.731 18.2323 192.748 18.3991C192.778 18.7713 192.8 19.1435 192.8 19.5243C192.8 19.674 192.8 19.828 192.8 19.9821C192.848 20.5196 192.865 21.0596 192.851 21.5992Z" fill="url(#paint13_linear_1010_2191)"/>
</g>
<defs>
<linearGradient id="paint0_linear_1010_2191" x1="0.199219" y1="203.527" x2="254.652" y2="203.527" gradientUnits="userSpaceOnUse">
<stop stop-color="#44A4BE"/>
<stop offset="1" stop-color="#D6F1FF"/>
</linearGradient>
<linearGradient id="paint1_linear_1010_2191" x1="147.449" y1="157.034" x2="210.315" y2="157.034" gradientUnits="userSpaceOnUse">
<stop stop-color="#333333"/>
<stop offset="0.37" stop-color="#848484"/>
<stop offset="0.66" stop-color="#BFBFBF"/>
<stop offset="0.88" stop-color="#E3E3E3"/>
<stop offset="1" stop-color="#F1F1F1"/>
</linearGradient>
<linearGradient id="paint2_linear_1010_2191" x1="125.473" y1="312.963" x2="129.736" y2="-0.138381" gradientUnits="userSpaceOnUse">
<stop stop-color="#F1F1F1"/>
<stop offset="0.43" stop-color="#EFEFEF"/>
<stop offset="0.62" stop-color="#E8E8E8"/>
<stop offset="0.76" stop-color="#DBDBDB"/>
<stop offset="0.88" stop-color="#C9C9C9"/>
<stop offset="0.98" stop-color="#B2B2B2"/>
<stop offset="1" stop-color="#ACACAC"/>
</linearGradient>
<linearGradient id="paint3_linear_1010_2191" x1="69.8556" y1="145.684" x2="71.435" y2="145.907" gradientUnits="userSpaceOnUse">
<stop stop-color="#666666"/>
<stop offset="0.06" stop-color="#727272"/>
<stop offset="0.33" stop-color="#A8A8A8"/>
<stop offset="0.57" stop-color="#D0D0D0"/>
<stop offset="0.76" stop-color="#E8E8E8"/>
<stop offset="0.87" stop-color="#F1F1F1"/>
<stop offset="0.95" stop-color="#F7F7F7"/>
<stop offset="1" stop-color="white"/>
</linearGradient>
<linearGradient id="paint4_linear_1010_2191" x1="179.76" y1="158.098" x2="181.577" y2="158.355" gradientUnits="userSpaceOnUse">
<stop stop-color="white"/>
<stop offset="0.05" stop-color="#F7F7F7"/>
<stop offset="0.13" stop-color="#F1F1F1"/>
<stop offset="0.24" stop-color="#E8E8E8"/>
<stop offset="0.43" stop-color="#D0D0D0"/>
<stop offset="0.67" stop-color="#A8A8A8"/>
<stop offset="0.94" stop-color="#727272"/>
<stop offset="1" stop-color="#666666"/>
</linearGradient>
<linearGradient id="paint5_linear_1010_2191" x1="103.381" y1="306.097" x2="106.789" y2="282.006" gradientUnits="userSpaceOnUse">
<stop stop-color="#F1F1F1"/>
<stop offset="0.12" stop-color="#E3E3E3"/>
<stop offset="0.34" stop-color="#BFBFBF"/>
<stop offset="0.63" stop-color="#848484"/>
<stop offset="1" stop-color="#333333"/>
</linearGradient>
<linearGradient id="paint6_linear_1010_2191" x1="144.139" y1="23.3693" x2="149.419" y2="-13.9571" gradientUnits="userSpaceOnUse">
<stop stop-color="#333333"/>
<stop offset="0.07" stop-color="#4C4C4C"/>
<stop offset="0.25" stop-color="#828282"/>
<stop offset="0.42" stop-color="#AFAFAF"/>
<stop offset="0.59" stop-color="#D2D2D2"/>
<stop offset="0.74" stop-color="#EBEBEB"/>
<stop offset="0.89" stop-color="#FAFAFA"/>
<stop offset="1" stop-color="white"/>
</linearGradient>
<linearGradient id="paint7_linear_1010_2191" x1="173.394" y1="156.999" x2="178.544" y2="157.727" gradientUnits="userSpaceOnUse">
<stop stop-color="#F0F0F0"/>
<stop offset="0.14" stop-color="#B7B7B7"/>
<stop offset="0.27" stop-color="#888888"/>
<stop offset="0.4" stop-color="#636363"/>
<stop offset="0.51" stop-color="#494949"/>
<stop offset="0.62" stop-color="#393939"/>
<stop offset="0.7" stop-color="#333333"/>
</linearGradient>
<linearGradient id="paint8_linear_1010_2191" x1="54.8018" y1="283.263" x2="155.433" y2="297.49" gradientUnits="userSpaceOnUse">
<stop/>
<stop offset="0.1" stop-color="#141414"/>
<stop offset="0.26" stop-color="#2C2C2C"/>
<stop offset="0.4" stop-color="#3B3B3B"/>
<stop offset="0.52" stop-color="#404040"/>
<stop offset="0.63" stop-color="#393939"/>
<stop offset="0.79" stop-color="#242424"/>
<stop offset="0.99" stop-color="#020202"/>
<stop offset="1"/>
</linearGradient>
<linearGradient id="paint9_linear_1010_2191" x1="94.6507" y1="6.84348" x2="197.822" y2="21.4299" gradientUnits="userSpaceOnUse">
<stop/>
<stop offset="0.1" stop-color="#141414"/>
<stop offset="0.26" stop-color="#2C2C2C"/>
<stop offset="0.4" stop-color="#3B3B3B"/>
<stop offset="0.52" stop-color="#404040"/>
<stop offset="0.63" stop-color="#393939"/>
<stop offset="0.79" stop-color="#242424"/>
<stop offset="0.99" stop-color="#020202"/>
<stop offset="1"/>
</linearGradient>
<linearGradient id="paint10_linear_1010_2191" x1="72.0876" y1="146.324" x2="74.6579" y2="146.687" gradientUnits="userSpaceOnUse">
<stop stop-color="#404040"/>
<stop offset="0.64" stop-color="#1A1A1A"/>
<stop offset="1" stop-color="#0A0A0A"/>
</linearGradient>
<linearGradient id="paint11_linear_1010_2191" x1="173.393" y1="156.943" x2="178.559" y2="157.673" gradientUnits="userSpaceOnUse">
<stop stop-color="#0A0A0A"/>
<stop offset="0.36" stop-color="#1A1A1A"/>
<stop offset="1" stop-color="#404040"/>
</linearGradient>
<linearGradient id="paint12_linear_1010_2191" x1="136.389" y1="12.0043" x2="149.266" y2="13.8249" gradientUnits="userSpaceOnUse">
<stop stop-color="#333333"/>
<stop offset="0.09" stop-color="#2B2B2B"/>
<stop offset="0.29" stop-color="#1E1E1E"/>
<stop offset="0.48" stop-color="#1A1A1A"/>
<stop offset="0.79" stop-color="#1C1C1C"/>
<stop offset="0.9" stop-color="#232323"/>
<stop offset="0.98" stop-color="#2E2E2E"/>
<stop offset="1" stop-color="#333333"/>
</linearGradient>
<linearGradient id="paint13_linear_1010_2191" x1="52.2556" y1="48.7138" x2="208.682" y2="256.618" gradientUnits="userSpaceOnUse">
<stop stop-color="#F2F3F4"/>
<stop offset="0.36" stop-color="#EDEEEF"/>
<stop offset="0.78" stop-color="#DFE0E0"/>
<stop offset="1" stop-color="#D5D6D6"/>
</linearGradient>
<clipPath id="clip0_1010_2191">
<rect width="161.925" height="312.698" fill="white" transform="translate(48.3906 0.666016)"/>
</clipPath>
</defs>
</svg>
